<?xml version="1.0" encoding="UTF-8"?>
<!-- Generated by Pixelmator Pro 3.3.12 -->
<svg width="538" height="67" viewBox="0 0 538 67" xmlns="http://www.w3.org/2000/svg">
    <path id="Form" fill="#f1e401" fill-rule="evenodd" stroke="none" d="M 511.448212 51.507813 C 510.065399 51.859375 508.635712 52.111328 507.159149 52.263672 C 505.682587 52.416016 504.182587 52.492188 502.659149 52.492188 C 498.229431 52.492188 494.924774 51.490246 492.745087 49.486328 C 490.565399 47.482414 489.475555 44.406273 489.475555 40.257813 L 489.475555 21.835938 L 479.596649 21.835938 L 479.596649 16.703125 L 489.475555 16.703125 L 489.475555 7 L 495.592743 5.417969 L 495.592743 16.703125 L 511.448212 16.703125 L 511.448212 21.835938 L 495.592743 21.835938 L 495.592743 39.765625 C 495.592743 42.29689 496.266571 44.189445 497.614227 45.443359 C 498.961884 46.697273 500.948212 47.324219 503.573212 47.324219 C 504.698212 47.324219 505.92868 47.236328 507.264618 47.060547 C 508.600555 46.884766 509.995087 46.609375 511.448212 46.234375 Z"/>
    <path id="path1" fill="#66b22e" fill-rule="evenodd" stroke="none" d="M 469.771851 51.507813 C 468.389038 51.859375 466.959351 52.111328 465.482788 52.263672 C 464.006226 52.416016 462.506226 52.492188 460.982788 52.492188 C 456.55307 52.492188 453.248413 51.490246 451.068726 49.486328 C 448.889038 47.482414 447.799194 44.406273 447.799194 40.257813 L 447.799194 21.835938 L 437.920288 21.835938 L 437.920288 16.703125 L 447.799194 16.703125 L 447.799194 7 L 453.916382 5.417969 L 453.916382 16.703125 L 469.771851 16.703125 L 469.771851 21.835938 L 453.916382 21.835938 L 453.916382 39.765625 C 453.916382 42.29689 454.59021 44.189445 455.937866 45.443359 C 457.285522 46.697273 459.271851 47.324219 461.896851 47.324219 C 463.021851 47.324219 464.252319 47.236328 465.588257 47.060547 C 466.924194 46.884766 468.318726 46.609375 469.771851 46.234375 Z"/>
    <path id="path2" fill="#f1e401" fill-rule="evenodd" stroke="none" d="M 429.466583 32.488281 C 429.466583 33.355473 429.454865 34.082027 429.431427 34.667969 C 429.40799 35.25391 429.372833 35.804688 429.325958 36.320313 L 404.540802 36.320313 C 404.540802 39.929703 405.548615 42.701164 407.56424 44.634766 C 409.579865 46.568367 412.486084 47.535156 416.28299 47.535156 C 417.31424 47.535156 418.34549 47.494141 419.37674 47.412109 C 420.40799 47.330078 421.404083 47.21875 422.365021 47.078125 C 423.325958 46.9375 424.24588 46.779297 425.124786 46.603516 C 426.003693 46.427734 426.818146 46.234375 427.568146 46.023438 L 427.568146 51.050781 C 425.904083 51.519531 424.023224 51.900391 421.925568 52.193359 C 419.827911 52.486328 417.654083 52.632813 415.404083 52.632813 C 412.380615 52.632813 409.779083 52.22266 407.599396 51.402344 C 405.419708 50.582027 403.632599 49.392586 402.238068 47.833984 C 400.843536 46.275383 399.812286 44.365246 399.144318 42.103516 C 398.476349 39.841785 398.142365 37.281265 398.142365 34.421875 C 398.142365 31.937489 398.499786 29.587902 399.21463 27.373047 C 399.929474 25.158192 400.972443 23.212898 402.343536 21.537109 C 403.71463 19.86132 405.396271 18.531254 407.388458 17.546875 C 409.380646 16.562496 411.642365 16.070313 414.173615 16.070313 C 416.634552 16.070313 418.81424 16.457027 420.712677 17.230469 C 422.611115 18.00391 424.210724 19.099602 425.511505 20.517578 C 426.812286 21.935555 427.796661 23.658192 428.46463 25.685547 C 429.132599 27.712902 429.466583 29.980457 429.466583 32.488281 Z M 423.103302 31.609375 C 423.173615 30.039055 423.021271 28.603523 422.646271 27.302734 C 422.271271 26.001945 421.691193 24.882816 420.906036 23.945313 C 420.12088 23.007809 419.142365 22.275394 417.97049 21.748047 C 416.798615 21.220699 415.43924 20.957031 413.892365 20.957031 C 412.556427 20.957031 411.337677 21.21484 410.236115 21.730469 C 409.134552 22.246098 408.185333 22.972652 407.388458 23.910156 C 406.591583 24.84766 405.947052 25.972649 405.454865 27.285156 C 404.962677 28.597664 404.65799 30.039055 404.540802 31.609375 Z"/>
    <path id="path3" fill="#66b22e" fill-rule="evenodd" stroke="none" d="M 386.419128 51.507813 C 385.036316 51.859375 383.606628 52.111328 382.130066 52.263672 C 380.653503 52.416016 379.153503 52.492188 377.630066 52.492188 C 373.200348 52.492188 369.895691 51.490246 367.716003 49.486328 C 365.536316 47.482414 364.446472 44.406273 364.446472 40.257813 L 364.446472 21.835938 L 354.567566 21.835938 L 354.567566 16.703125 L 364.446472 16.703125 L 364.446472 7 L 370.56366 5.417969 L 370.56366 16.703125 L 386.419128 16.703125 L 386.419128 21.835938 L 370.56366 21.835938 L 370.56366 39.765625 C 370.56366 42.29689 371.237488 44.189445 372.585144 45.443359 C 373.9328 46.697273 375.919128 47.324219 378.544128 47.324219 C 379.669128 47.324219 380.899597 47.236328 382.235535 47.060547 C 383.571472 46.884766 384.966003 46.609375 386.419128 46.234375 Z"/>
    <path id="path4" fill="#f1e401" fill-rule="evenodd" stroke="none" d="M 317.742767 16.703125 L 323.332611 16.703125 L 323.508392 23.207031 C 325.59433 20.699207 327.65097 18.882816 329.678314 17.757813 C 331.705658 16.632809 333.75058 16.070313 335.81308 16.070313 C 339.46936 16.070313 342.240814 17.253895 344.127533 19.621094 C 346.014252 21.988293 346.887299 25.503883 346.746674 30.167969 L 340.559174 30.167969 C 340.629486 27.074203 340.178314 24.830086 339.205658 23.435547 C 338.233002 22.041008 336.809174 21.34375 334.934174 21.34375 C 334.113861 21.34375 333.287689 21.490234 332.455658 21.783203 C 331.623627 22.076172 330.768158 22.544918 329.889252 23.189453 C 329.010345 23.833988 328.078705 24.660152 327.09433 25.667969 C 326.109955 26.675785 325.055267 27.894524 323.930267 29.324219 L 323.930267 52 L 317.742767 52 Z"/>
    <path id="path5" fill="#66b22e" fill-rule="evenodd" stroke="none" d="M 297.300781 52 L 297.160156 47.253906 C 295.238281 49.152351 293.287109 50.523434 291.306641 51.367188 C 289.326172 52.210941 287.246094 52.632813 285.066406 52.632813 C 283.050781 52.632813 281.328125 52.375004 279.898438 51.859375 C 278.46875 51.343746 277.291016 50.634769 276.365234 49.732422 C 275.439453 48.830074 274.759766 47.769539 274.326172 46.550781 C 273.892578 45.332024 273.675781 44.00782 273.675781 42.578125 C 273.675781 39.039047 274.994141 36.267586 277.630859 34.263672 C 280.267578 32.259754 284.164032 31.257813 289.320313 31.257813 L 296.632813 31.257813 L 296.632813 28.164063 C 296.632813 26.078114 295.964844 24.408211 294.628906 23.154297 C 293.292969 21.900383 291.253906 21.273438 288.511719 21.273438 C 286.519531 21.273438 284.556641 21.49609 282.623047 21.941406 C 280.689453 22.386723 278.691406 23.019527 276.628906 23.839844 L 276.628906 18.320313 C 277.402344 18.039063 278.263672 17.763672 279.212891 17.494141 C 280.162109 17.224609 281.164063 16.984375 282.21875 16.773438 C 283.273438 16.5625 284.375 16.392578 285.523438 16.263672 C 286.671875 16.134766 287.832031 16.070313 289.003906 16.070313 C 291.136719 16.070313 293.058594 16.304684 294.769531 16.773438 C 296.480469 17.242191 297.927734 17.957027 299.111328 18.917969 C 300.294922 19.87891 301.203125 21.08593 301.835938 22.539063 C 302.46875 23.992195 302.785156 25.703114 302.785156 27.671875 L 302.785156 52 Z M 296.632813 35.933594 L 288.863281 35.933594 C 287.339844 35.933594 286.027344 36.085938 284.925781 36.390625 C 283.824219 36.695313 282.921875 37.128906 282.21875 37.691406 C 281.515625 38.253906 280.994141 38.927731 280.654297 39.712891 C 280.314453 40.498051 280.144531 41.382805 280.144531 42.367188 C 280.144531 43.046879 280.25 43.697262 280.460938 44.318359 C 280.671875 44.939457 281.011719 45.490234 281.480469 45.970703 C 281.949219 46.451172 282.558594 46.832031 283.308594 47.113281 C 284.058594 47.394531 284.972656 47.535156 286.050781 47.535156 C 287.457031 47.535156 289.068359 47.107426 290.884766 46.251953 C 292.701172 45.396481 294.617188 44.042976 296.632813 42.191406 Z"/>
    <path id="path6" fill="#f1e401" fill-rule="evenodd" stroke="none" d="M 261.319733 52 L 255.835358 52 L 255.62442 46.304688 C 254.569733 47.523445 253.56778 48.537106 252.618561 49.345703 C 251.669342 50.154301 250.725983 50.804688 249.788483 51.296875 C 248.850983 51.789066 247.907623 52.134766 246.958405 52.333984 C 246.009186 52.533203 245.007233 52.632813 243.952545 52.632813 C 240.319717 52.632813 237.57756 51.566418 235.725983 49.433594 C 233.874405 47.30077 232.948639 44.078148 232.948639 39.765625 L 232.948639 16.703125 L 239.065826 16.703125 L 239.065826 39.273438 C 239.065826 44.687527 241.104874 47.394531 245.183014 47.394531 C 245.933014 47.394531 246.665436 47.283203 247.38028 47.060547 C 248.095123 46.837891 248.845123 46.451172 249.63028 45.900391 C 250.415436 45.349609 251.259186 44.605473 252.16153 43.667969 C 253.063873 42.730465 254.077545 41.546883 255.202545 40.117188 L 255.202545 16.703125 L 261.319733 16.703125 Z"/>
    <path id="path7" fill="#66b22e" fill-rule="evenodd" stroke="none" d="M 202.065247 52.421875 C 199.627731 52.070313 197.506668 51.296883 195.701965 50.101563 C 193.897263 48.906242 192.397278 47.330086 191.201965 45.373047 C 190.006653 43.416008 189.116028 41.107437 188.53009 38.447266 C 187.944153 35.787094 187.651184 32.839859 187.651184 29.605469 C 187.651184 25.433575 188.131653 21.824234 189.09259 18.777344 C 190.053528 15.730453 191.360153 13.216808 193.012512 11.236328 C 194.664871 9.255848 196.592575 7.791019 198.795715 6.841797 C 200.998856 5.892574 203.330856 5.417969 205.791809 5.417969 C 208.744949 5.417969 211.317184 5.951168 213.508606 7.017578 C 215.700027 8.083988 217.522278 9.619129 218.975403 11.623047 C 220.428528 13.626965 221.512512 16.052719 222.227356 18.900391 C 222.9422 21.748062 223.299622 24.953106 223.299622 28.515625 C 223.299622 32.265644 222.901184 35.552719 222.104309 38.376953 C 221.307434 41.201187 220.21759 43.597649 218.834778 45.566406 C 217.451965 47.535164 215.823074 49.082024 213.948059 50.207031 C 212.073044 51.332039 210.057449 52.070313 207.901184 52.421875 C 208.252747 54.484386 209.073059 56.14257 210.362122 57.396484 C 211.651184 58.650398 213.467575 59.277344 215.81134 59.277344 C 216.93634 59.277344 218.043762 59.089844 219.133606 58.714844 C 220.22345 58.339844 221.330872 57.707035 222.455872 56.816406 L 225.233215 61.140625 C 223.68634 62.406258 222.092606 63.30859 220.451965 63.847656 C 218.811325 64.386719 217.123856 64.65625 215.389465 64.65625 C 213.51445 64.65625 211.791824 64.398438 210.221497 63.882813 C 208.651169 63.367184 207.28595 62.599613 206.125793 61.580078 C 204.965637 60.560543 204.033997 59.283211 203.330872 57.748047 C 202.627747 56.212883 202.205872 54.437511 202.065247 52.421875 Z M 216.795715 29.253906 C 216.795715 26.535141 216.590637 24.056652 216.180481 21.818359 C 215.770325 19.580067 215.108215 17.658211 214.194153 16.052734 C 213.28009 14.447258 212.102356 13.199223 210.66095 12.308594 C 209.219543 11.417965 207.479324 10.972656 205.440247 10.972656 C 203.471481 10.972656 201.778137 11.441402 200.360168 12.378906 C 198.9422 13.31641 197.776184 14.587883 196.862122 16.193359 C 195.948059 17.798836 195.268372 19.673817 194.823059 21.818359 C 194.377747 23.962902 194.15509 26.242176 194.15509 28.65625 C 194.15509 31.445328 194.366028 33.970692 194.787903 36.232422 C 195.209778 38.494152 195.871887 40.433586 196.774231 42.050781 C 197.676575 43.667976 198.84259 44.916012 200.272278 45.794922 C 201.701965 46.673832 203.424606 47.113281 205.440247 47.113281 C 207.409012 47.113281 209.108215 46.644535 210.537903 45.707031 C 211.96759 44.769527 213.145325 43.492195 214.071106 41.875 C 214.996887 40.257805 215.682434 38.365246 216.127747 36.197266 C 216.573059 34.029285 216.795715 31.714855 216.795715 29.253906 Z"/>
    <path id="path8" fill="#f1e401" fill-rule="evenodd" stroke="none" d="M 179.408417 32.488281 C 179.408417 33.355473 179.396698 34.082027 179.37326 34.667969 C 179.349823 35.25391 179.314667 35.804688 179.267792 36.320313 L 154.482635 36.320313 C 154.482635 39.929703 155.490433 42.701164 157.506073 44.634766 C 159.521713 46.568367 162.427933 47.535156 166.224823 47.535156 C 167.256073 47.535156 168.287323 47.494141 169.318573 47.412109 C 170.349823 47.330078 171.345917 47.21875 172.306854 47.078125 C 173.267792 46.9375 174.187714 46.779297 175.06662 46.603516 C 175.945526 46.427734 176.759979 46.234375 177.509979 46.023438 L 177.509979 51.050781 C 175.845901 51.519531 173.965073 51.900391 171.867401 52.193359 C 169.76973 52.486328 167.595932 52.632813 165.345917 52.632813 C 162.322464 52.632813 159.720932 52.22266 157.541229 51.402344 C 155.361526 50.582027 153.574432 49.392586 152.179901 47.833984 C 150.78537 46.275383 149.75412 44.365246 149.086151 42.103516 C 148.418182 39.841785 148.084198 37.281265 148.084198 34.421875 C 148.084198 31.937489 148.44162 29.587902 149.156464 27.373047 C 149.871307 25.158192 150.914276 23.212898 152.28537 21.537109 C 153.656464 19.86132 155.338089 18.531254 157.330292 17.546875 C 159.322495 16.562496 161.584183 16.070313 164.115448 16.070313 C 166.576401 16.070313 168.756058 16.457027 170.65451 17.230469 C 172.552963 18.00391 174.152557 19.099602 175.453339 20.517578 C 176.75412 21.935555 177.738495 23.658192 178.406464 25.685547 C 179.074432 27.712902 179.408417 29.980457 179.408417 32.488281 Z M 173.045135 31.609375 C 173.115448 30.039055 172.963104 28.603523 172.588104 27.302734 C 172.213104 26.001945 171.633026 24.882816 170.84787 23.945313 C 170.062714 23.007809 169.084198 22.275394 167.912323 21.748047 C 166.740448 21.220699 165.381088 20.957031 163.834198 20.957031 C 162.49826 20.957031 161.27951 21.21484 160.177948 21.730469 C 159.076385 22.246098 158.127167 22.972652 157.330292 23.910156 C 156.533417 24.84766 155.888885 25.972649 155.396698 27.285156 C 154.90451 28.597664 154.599823 30.039055 154.482635 31.609375 Z"/>
    <path id="path9" fill="#66b22e" fill-rule="evenodd" stroke="none" d="M 106.126587 35.089844 C 106.126587 32.089828 106.536743 29.42384 107.357056 27.091797 C 108.177376 24.759754 109.343376 22.791023 110.855103 21.185547 C 112.366829 19.58007 114.18322 18.361332 116.304321 17.529297 C 118.425423 16.697262 120.786728 16.28125 123.388306 16.28125 C 124.513313 16.28125 125.62072 16.351563 126.710571 16.492188 C 127.800423 16.632813 128.872681 16.855469 129.927368 17.160156 L 129.927368 2.324219 L 136.079712 2.324219 L 136.079712 52 L 130.595337 52 L 130.384399 45.320313 C 128.673447 47.804703 126.821907 49.644524 124.829712 50.839844 C 122.837517 52.035164 120.68129 52.632813 118.360962 52.632813 C 116.345329 52.632813 114.569954 52.210941 113.03479 51.367188 C 111.499626 50.523434 110.222298 49.333992 109.202759 47.798828 C 108.18322 46.263664 107.415649 44.41798 106.900024 42.261719 C 106.384399 40.105457 106.126587 37.714859 106.126587 35.089844 Z M 112.384399 34.703125 C 112.384399 38.968773 113.011345 42.150383 114.265259 44.248047 C 115.519173 46.345711 117.294548 47.394531 119.591431 47.394531 C 121.138313 47.394531 122.773064 46.703133 124.495728 45.320313 C 126.218391 43.937492 128.028915 41.886734 129.927368 39.167969 L 129.927368 22.785156 C 128.919556 22.316402 127.806282 21.958984 126.587524 21.712891 C 125.368767 21.466797 124.161751 21.34375 122.966431 21.34375 C 119.63829 21.34375 117.04261 22.421864 115.179321 24.578125 C 113.316032 26.734386 112.384399 30.109352 112.384399 34.703125 Z"/>
    <path id="path10" fill="#f1e401" fill-rule="evenodd" stroke="none" d="M 96.969757 34.070313 C 96.969757 36.812515 96.583046 39.32616 95.809601 41.611328 C 95.036163 43.896496 93.92289 45.853508 92.469757 47.482422 C 91.016624 49.111336 89.247108 50.376949 87.161163 51.279297 C 85.075218 52.181644 82.708054 52.632813 80.059601 52.632813 C 77.528336 52.632813 75.26078 52.240238 73.256866 51.455078 C 71.252953 50.669918 69.553749 49.515633 68.15921 47.992188 C 66.764671 46.468742 65.69828 44.582043 64.959991 42.332031 C 64.22171 40.08202 63.85257 37.492203 63.85257 34.5625 C 63.85257 31.820297 64.239288 29.318371 65.012726 27.056641 C 65.786171 24.79491 66.899437 22.849617 68.35257 21.220703 C 69.805702 19.591789 71.575218 18.326176 73.661163 17.423828 C 75.747108 16.521481 78.114273 16.070313 80.762726 16.070313 C 83.293991 16.070313 85.561546 16.462887 87.56546 17.248047 C 89.569374 18.033207 91.268578 19.181633 92.663116 20.693359 C 94.057655 22.205086 95.124054 24.085926 95.862335 26.335938 C 96.600624 28.585949 96.969757 31.164047 96.969757 34.070313 Z M 90.711945 34.351563 C 90.711945 32.171864 90.47171 30.267586 89.991241 28.638672 C 89.510773 27.009758 88.825233 25.650394 87.934601 24.560547 C 87.043968 23.470699 85.959999 22.650394 84.682648 22.099609 C 83.405296 21.548824 81.981483 21.273438 80.411163 21.273438 C 78.583031 21.273438 77.018593 21.630856 75.717804 22.345703 C 74.417015 23.060551 73.350624 24.015617 72.518585 25.210938 C 71.686554 26.406258 71.077179 27.794914 70.69046 29.376953 C 70.303741 30.958992 70.110382 32.61718 70.110382 34.351563 C 70.110382 36.531261 70.350616 38.441399 70.831085 40.082031 C 71.311554 41.722664 71.997093 43.087883 72.887726 44.177734 C 73.778358 45.267586 74.856468 46.087891 76.122101 46.638672 C 77.387733 47.189453 78.817406 47.464844 80.411163 47.464844 C 82.239296 47.464844 83.803734 47.107426 85.104523 46.392578 C 86.405312 45.677731 87.47171 44.722664 88.303741 43.527344 C 89.13578 42.332024 89.745148 40.943367 90.131866 39.361328 C 90.518585 37.779289 90.711945 36.109383 90.711945 34.351563 Z"/>
    <path id="path11" fill="#66b22e" fill-rule="evenodd" stroke="none" d="M 53.922302 50.277344 C 50.242596 51.800789 46.387165 52.5625 42.355896 52.5625 C 35.863678 52.5625 30.877398 50.623066 27.396912 46.744141 C 23.916426 42.865215 22.176208 37.128944 22.176208 29.535156 C 22.176208 25.85545 22.656673 22.527359 23.617615 19.550781 C 24.578558 16.574203 25.949638 14.04884 27.730896 11.974609 C 29.512156 9.900379 31.668385 8.300785 34.199646 7.175781 C 36.730907 6.050777 39.566818 5.488281 42.707458 5.488281 C 44.840282 5.488281 46.820732 5.669922 48.648865 6.033203 C 50.477001 6.396484 52.234795 6.953121 53.922302 7.703125 L 53.922302 13.855469 C 52.258232 12.941402 50.535591 12.244144 48.754333 11.763672 C 46.973076 11.283199 45.027782 11.042969 42.918396 11.042969 C 40.762135 11.042969 38.810982 11.447262 37.06488 12.255859 C 35.318779 13.064457 33.836372 14.23632 32.617615 15.771484 C 31.398859 17.306648 30.461369 19.181629 29.805115 21.396484 C 29.148863 23.61134 28.82074 26.136703 28.82074 28.972656 C 28.82074 34.925812 30.02776 39.414047 32.441833 42.4375 C 34.855907 45.460953 38.394936 46.972656 43.059021 46.972656 C 45.027782 46.972656 46.914482 46.744141 48.719177 46.287109 C 50.523872 45.830078 52.258232 45.19141 53.922302 44.371094 Z"/>
</svg>
